<svg width="72" height="60" viewBox="0 0 66 54" fill="none" xmlns="http://www.w3.org/2000/svg">
<circle cx="34" cy="27" r="24.75" stroke="#5200FF" stroke-width="4.5"/>
<path d="M18.9961 18.3652C18.9961 17.4538 19.3053 16.6888 19.9238 16.0703C20.5749 15.4193 21.3561 15.0938 22.2676 15.0938H41.1152C41.3105 15.0938 41.5059 15.11 41.7012 15.1426H41.9941C44.2728 15.2077 46.1445 15.7285 47.6094 16.7051C49.0742 17.6491 50.1322 18.7396 50.7832 19.9766C51.4342 21.2135 51.7598 22.4668 51.7598 23.7363C51.7598 25.0059 51.4342 26.2591 50.7832 27.4961C50.1647 28.7331 49.1068 29.8398 47.6094 30.8164C46.1445 31.7604 44.2728 32.1836 41.9941 32.0859H36.8184C36.1999 32.1185 35.8255 32.2487 35.6953 32.4766C35.5977 32.6719 35.5488 32.8835 35.5488 33.1113V33.3066C35.3535 35.1947 34.263 36.2201 32.2773 36.3828C31.3333 36.3828 30.5195 36.0898 29.8359 35.5039C29.1523 34.8854 28.8105 34.153 28.8105 33.3066V30.7676C28.8757 29.3678 29.3639 28.1634 30.2754 27.1543C31.1868 26.1452 32.7819 25.6081 35.0605 25.543H42.2871C42.9056 25.5755 43.4102 25.4779 43.8008 25.25C44.224 25.0221 44.5332 24.778 44.7285 24.5176C44.9238 24.2246 45.0215 23.9316 45.0215 23.6387C45.0215 23.3457 44.9238 23.069 44.7285 22.8086C44.5332 22.5156 44.224 22.2552 43.8008 22.0273C43.4102 21.7995 42.9056 21.6693 42.2871 21.6367H22.2676C21.3561 21.6367 20.5911 21.3112 19.9727 20.6602C19.3216 20.0417 18.9961 19.2767 18.9961 18.3652ZM36.2324 41.168C36.2324 42.0794 35.8418 42.8607 35.0605 43.5117C34.2793 44.1628 33.3353 44.4883 32.2285 44.4883C31.1217 44.4883 30.1777 44.1628 29.3965 43.5117C28.6152 42.8607 28.2246 42.0794 28.2246 41.168C28.2246 40.224 28.6152 39.4264 29.3965 38.7754C30.1777 38.1243 31.1217 37.7988 32.2285 37.7988C33.3353 37.7988 34.2793 38.1243 35.0605 38.7754C35.8418 39.4264 36.2324 40.224 36.2324 41.168Z" fill="#5200FF"/>
<path d="M53.9563 9.17102L51.6228 7.64365L60.7146 4.48371L56.1949 12.791L55.7529 11.4894C55.4298 10.5376 54.7973 9.72148 53.9563 9.17102ZM55.6493 13.7939C55.6494 13.7937 55.6495 13.7936 55.6495 13.7934L55.6493 13.7939Z" fill="#5200FF" stroke="#5200FF" stroke-width="5"/>
<path d="M13.6414 44.9385L15.7399 46.2357L5.79041 48.8765L11.1649 40.8945L11.7597 42.5958C12.1 43.5692 12.7643 44.3962 13.6414 44.9385Z" fill="#5200FF" stroke="#5200FF" stroke-width="5"/>
</svg>
